# xmcd
#
# Track frame offsets: 
#        150
#        15700
#        28145
#        42065
#        61902
#        74497
#        88520
#        105695
#        119897
#        133730
#        149695
#        174472
#        196412
#        216345
#        234617
#        256750
#        269675
#        287745
#        311747
#        327200
#
# Disc length: 4593 seconds
#
# Revision: 0
# Processed by: cddbd v1.4PL0 Copyright (c) Steve Scherf et al.
# Submitted via: ExactAudioCopy v0.90b4
#
DISCID=3d11ef14
DTITLE=David Ruffin - The Ultimate Collection
DYEAR=1998
DGENRE=R&B
TTITLE0=My Whole World Ended (The Moment You Left Me)
TTITLE1=I've Lost Everything I've Ever Loved
TTITLE2=The Double Cross
TTITLE3=World Of Darkness
TTITLE4=Pieces Of A Man
TTITLE5=I'm So Glad I Fell For You
TTITLE6=I Miss You (Part 1)
TTITLE7=Common Man
TTITLE8=A Little More Trust
TTITLE9=No Matter Where
TTITLE10=Walk Away From Love
TTITLE11=Heavy Love
TTITLE12=Statue Of A Fool
TTITLE13=Who I Am
TTITLE14=Everything's Coming Up Love
TTITLE15=On And Off
TTITLE16=Just Let Me Hold You For A Night
TTITLE17=You're My Peace Of Mind
TTITLE18=Rode By The Place (Where We Used To Stay)
TTITLE19=Let Somebody Love Me
EXTD=
EXTT0=
EXTT1=
EXTT2=
EXTT3=
EXTT4=
EXTT5=
EXTT6=
EXTT7=
EXTT8=
EXTT9=
EXTT10=
EXTT11=
EXTT12=
EXTT13=
EXTT14=
EXTT15=
EXTT16=
EXTT17=
EXTT18=
EXTT19=
PLAYORDER=
